<svg xmlns="http://www.w3.org/2000/svg" viewBox="0 0 33.05 33.05"><defs><style>.cls-1{fill:none;stroke:#ccc;stroke-linecap:round;stroke-miterlimit:10;stroke-width:0.79px;}</style></defs><title>Asset 3</title><g id="Layer_2" data-name="Layer 2"><g id="Layer_1-2" data-name="Layer 1"><path class="cls-1" d="M.39,31.94V15.57A.36.36,0,0,1,1,15.29l11.1,8.47L1,32.22A.36.36,0,0,1,.39,31.94Z"/><path class="cls-1" d="M32.66,31.94V15.57a.36.36,0,0,0-.58-.28L21,23.76l11.11,8.46A.36.36,0,0,0,32.66,31.94Z"/><line class="cls-1" x1="11.52" y1="23.76" x2="20.97" y2="23.76"/><line class="cls-1" x1="14.86" y1="9.85" x2="18.19" y2="9.85"/><line class="cls-1" x1="19.86" y1="18.75" x2="23.2" y2="18.75"/><line class="cls-1" x1="9.85" y1="14.3" x2="12.63" y2="14.3"/><line class="cls-1" x1="17.08" y1="14.3" x2="20.97" y2="14.3"/><line class="cls-1" x1="14.86" y1="14.3" x2="14.86" y2="14.3"/><line class="cls-1" x1="12.07" y1="18.75" x2="17.64" y2="18.75"/><line class="cls-1" x1="9.85" y1="18.75" x2="9.85" y2="18.75"/><line class="cls-1" x1="23.2" y1="14.3" x2="23.2" y2="14.3"/><polygon class="cls-1" points="29.32 5.4 3.73 5.4 3.73 17.4 12.07 23.75 20.97 23.75 29.32 17.4 29.32 5.4"/><path class="cls-1" d="M22.5,5.4,17.56.8a1.52,1.52,0,0,0-2.07,0L10.55,5.4Z"/><polygon class="cls-1" points="29.32 11.75 29.32 17.4 20.97 23.75 12.07 23.75 3.73 17.4 3.73 11.75 0.39 14.86 0.39 14.91 0.39 32.58 0.39 32.66 0.47 32.66 32.4 32.66 32.58 32.66 32.66 32.66 32.66 32.58 32.66 14.91 32.66 14.86 29.32 11.75"/></g></g></svg>