<svg xmlns="http://www.w3.org/2000/svg" viewBox="0 0 30.75 30.75"><defs><style>.cls-1,.cls-2,.cls-3{fill:none;stroke:#ccc;stroke-linecap:round;stroke-miterlimit:10;stroke-width:0.79px;}.cls-2{stroke-dasharray:3.5 3.5;}.cls-3{stroke-dasharray:3.95 3.95;}</style></defs><title>Asset 4</title><g id="Layer_2" data-name="Layer 2"><g id="Layer_1-2" data-name="Layer 1"><rect class="cls-1" x="0.39" y="0.39" width="29.97" height="29.97"/><circle class="cls-1" cx="3.49" cy="3.49" r="1.55"/><circle class="cls-1" cx="8.14" cy="3.49" r="1.55"/><circle class="cls-1" cx="12.79" cy="3.49" r="1.55"/><rect class="cls-1" x="0.39" y="0.39" width="29.97" height="6.2"/><polyline class="cls-1" points="26.23 24.4 26.23 26.23 24.4 26.23"/><line class="cls-2" x1="20.89" y1="26.23" x2="8.63" y2="26.23"/><polyline class="cls-1" points="6.87 26.23 5.04 26.23 5.04 24.4"/><line class="cls-3" x1="5.04" y1="20.45" x2="5.04" y2="14.53"/><polyline class="cls-1" points="5.04 12.56 5.04 10.73 6.87 10.73"/><line class="cls-2" x1="10.38" y1="10.73" x2="22.65" y2="10.73"/><polyline class="cls-1" points="24.4 10.73 26.23 10.73 26.23 12.56"/><line class="cls-3" x1="26.23" y1="16.5" x2="26.23" y2="22.42"/><line class="cls-1" x1="15.38" y1="14.34" x2="15.38" y2="22.61"/><line class="cls-1" x1="19.51" y1="18.48" x2="11.24" y2="18.48"/></g></g></svg>