<svg xmlns="http://www.w3.org/2000/svg" viewBox="0 0 37.31 32.02"><defs><style>.cls-1{fill:none;stroke:#ffffff;stroke-linecap:round;stroke-miterlimit:10;stroke-width:0.91px;}</style></defs><title>Asset 1</title><g id="Layer_2" data-name="Layer 2"><g id="Layer_1-2" data-name="Layer 1"><path class="cls-1" d="M35.53,16.34H32.88V19h2.65a1.33,1.33,0,0,0,0-2.65Z"/><path class="cls-1" d="M1.78,19H4.43V16.34H1.78a1.33,1.33,0,0,0,0,2.65Z"/><path class="cls-1" d="M10.8,29.77c2.62-2,2-2.2,0-4.83C8.17,26.93,8.81,27.14,10.8,29.77Z"/><path class="cls-1" d="M18.74,29.11c4.07-3.08,3.07-3.41,0-7.48C14.67,24.71,15.67,25,18.74,29.11Z"/><path class="cls-1" d="M26.51,24.94c-2.62,2-2,2.2,0,4.83C29.14,27.78,28.5,27.57,26.51,24.94Z"/><circle class="cls-1" cx="20.64" cy="2.11" r="1.65"/><circle class="cls-1" cx="28.25" cy="7.74" r="0.66"/><circle class="cls-1" cx="8.4" cy="7.74" r="1.99"/><path class="cls-1" d="M18,11.71a1.65,1.65,0,1,0-2.64,0Z"/><path class="cls-1" d="M34,11.71H3.31a.49.49,0,0,0-.41.74L4,14.26a3.23,3.23,0,0,1,.45,1.64v8.25a3.43,3.43,0,0,0,3.42,3.44H9.22c-.42-.87-.05-1.42,1.58-2.65,1,1.31,1.64,2,1.72,2.65h5.05c-2.08-2.69-2.32-3.32,1.17-6,2.48,3.29,3.6,4.14,1.8,6h4.4c-.43-.87-.05-1.42,1.57-2.65,1,1.31,1.65,2,1.73,2.65h1.22a3.43,3.43,0,0,0,3.42-3.44V15.9a3.15,3.15,0,0,1,.46-1.64l1.07-1.81A.48.48,0,0,0,34,11.71Z"/><line class="cls-1" x1="9.72" y1="31.56" x2="26.93" y2="31.56"/><path class="cls-1" d="M13.08,15H30.24"/><path class="cls-1" d="M7.07,15h3.2"/></g></g></svg>